PathFileType	4	(X/Y/Z)	/Users/itak/Documents/Research/Walk-IL/dataset/trc/00045_00004.trc
DataRate	CameraRate	NumFrames	NumMarkers	Units	OrigDataRate	OrigDataStartFrame	OrigNumFrames
100.000000	100.000000	4	53	mm	100.000000	67	538
Frame#	Time	RPSI			LPSI			L3			STRN			T10			C7			CLAV			RBAK			LBAK			LSHO			LUPA			LAEL			LAOL			LWTS			LWPS			LFRA			LIFD			LHPS			LHTS			RSHO			RUPA			RAEL			RAOL			RWTS			RWPS			RFRA			RIFD			RHTS			RHPS			RBHD			LFHD			RFHD			LBHD			LHIP			RHIP			RASI			LASI			LKNE			LTHI			LANK			LTIP			LTOE			LMT1			LMT5			LHEE			RKNE			RTHI			RANK			RTIP			RTOE			RMT1			RMT5			RHEE			
		X1	Y1	Z1	X2	Y2	Z2	X3	Y3	Z3	X4	Y4	Z4	X5	Y5	Z5	X6	Y6	Z6	X7	Y7	Z7	X8	Y8	Z8	X9	Y9	Z9	X10	Y10	Z10	X11	Y11	Z11	X12	Y12	Z12	X13	Y13	Z13	X14	Y14	Z14	X15	Y15	Z15	X16	Y16	Z16	X17	Y17	Z17	X18	Y18	Z18	X19	Y19	Z19	X20	Y20	Z20	X21	Y21	Z21	X22	Y22	Z22	X23	Y23	Z23	X24	Y24	Z24	X25	Y25	Z25	X26	Y26	Z26	X27	Y27	Z27	X28	Y28	Z28	X29	Y29	Z29	X30	Y30	Z30	X31	Y31	Z31	X32	Y32	Z32	X33	Y33	Z33	X34	Y34	Z34	X35	Y35	Z35	X36	Y36	Z36	X37	Y37	Z37	X38	Y38	Z38	X39	Y39	Z39	X40	Y40	Z40	X41	Y41	Z41	X42	Y42	Z42	X43	Y43	Z43	X44	Y44	Z44	X45	Y45	Z45	X46	Y46	Z46	X47	Y47	Z47	X48	Y48	Z48	X49	Y49	Z49	X50	Y50	Z50	X51	Y51	Z51	X52	Y52	Z52	X53	Y53	Z53	

68	0.67	-1202.0556640625	1074.115966796875	218.6070404052734	-1206.054931640625	1062.973999023438	54.36776351928711	-1211.572509765625	1118.420532226562	126.1454010009766	-1002.426452636719	1328.091918945312	132.6471862792969	-1247.814697265625	1261.705932617188	118.4419326782227	-1214.4892578125	1532.348510742188	106.6939086914062	-1049.865844726562	1451.545043945312	124.0770568847656	-1261.370849609375	1391.960083007812	184.7183837890625	-1222.515747070312	1488.03857421875	7.994133472442627	-1116.332763671875	1503.217041015625	-60.03087997436523	-1130.77783203125	1372.419189453125	-135.0775146484375	-1108.041870117188	1153.358764648438	-150.6373443603516	-1167.201782226562	1139.881469726562	-63.61787033081055	-1010.936645507812	906.6127319335938	-82.66162872314453	-1084.028564453125	888.0191650390625	-129.0101776123047	-1088.383422851562	1038.376953125	-152.2458343505859	-974.5684204101562	727.9080810546875	-56.10722732543945	-1045.898803710938	799.623291015625	-124.0581512451172	-984.0742797851562	814.286865234375	-91.60817718505859	-1150.392822265625	1522.7607421875	287.82763671875	-1164.2763671875	1451.579833984375	358.3590698242188	-1181.498046875	1180.881225585938	379.6081237792969	-1172.431396484375	1154.272338867188	283.1607360839844	-1044.330932617188	924.4202270507812	359.3114624023438	-1112.526245117188	909.0991821289062	419.4785461425781	-1166.805541992188	1105.912231445312	395.9252624511719	-1025.735107421875	740.3267822265625	344.2964782714844	-1009.701171875	816.3351440429688	375.9467163085938	-1068.460205078125	810.1581420898438	422.6024475097656	-1173.773315429688	1718.0087890625	43.64076232910156	-999.296630859375	1749.639282226562	171.3511810302734	-996.5298461914062	1747.138061523438	72.72140502929688	-1171.305786132812	1720.666748046875	188.119384765625	-1106.361083984375	961.5797729492188	-54.33575439453125	-1089.771362304688	960.6146240234375	316.3067626953125	-987.0762329101562	997.1514282226562	244.4507598876953	-993.322021484375	1013.164489746094	9.777863502502441	-1074.100463867188	517.6605224609375	5.877092838287354	-1089.081909179688	653.3861083984375	-34.13137817382812	-1178.388671875	42.11460113525391	7.180891513824463	-1158.09033203125	288.3426513671875	-14.80848503112793	-965.633056640625	41.11773300170898	91.92593383789062	-1027.11767578125	50.92660522460938	102.655517578125	-1053.748657226562	40.88840866088867	-1.72966480255127	-1252.1513671875	47.697265625	52.24250411987305	-1096.662353515625	524.2340087890625	268.4212036132812	-1069.859008789062	792.6859130859375	313.4972534179688	-1222.4267578125	48.49645614624023	242.1897430419922	-1127.38427734375	404.0945739746094	266.6792602539062	-988.8316040039062	45.20346832275391	212.2121276855469	-1050.91259765625	50.58898162841797	180.9340209960938	-1074.425048828125	44.94113159179688	272.5816955566406	-1275.901611328125	49.33871078491211	193.7596588134766	
69	0.68	-1202.41796875	1074.157348632812	218.3400268554688	-1206.009765625	1062.993041992188	54.14030838012695	-1211.644897460938	1118.506225585938	125.90234375	-1002.428161621094	1328.057006835938	132.8692932128906	-1247.779907226562	1261.817016601562	117.9929046630859	-1214.281372070312	1532.3798828125	106.3977661132812	-1049.767333984375	1451.523803710938	124.1958312988281	-1261.605224609375	1392.062866210938	184.1730651855469	-1222.085571289062	1488.138061523438	7.599676132202148	-1115.678100585938	1503.248413085938	-60.09557723999023	-1129.977416992188	1372.470092773438	-135.2176361083984	-1107.280029296875	1153.406005859375	-150.7216186523438	-1166.792846679688	1139.9423828125	-63.92958450317383	-1010.718444824219	906.5786743164062	-82.57286834716797	-1083.703369140625	888.0285034179688	-129.1557464599609	-1087.798217773438	1038.41845703125	-152.3459167480469	-975.0968627929688	727.5369262695312	-55.87267684936523	-1045.60888671875	799.5841064453125	-124.0950546264648	-983.9257202148438	814.1403198242188	-91.41930389404297	-1150.764770507812	1522.802490234375	287.6514282226562	-1164.947509765625	1451.651489257812	358.1281433105469	-1182.60986328125	1180.963989257812	379.2549743652344	-1173.286987304688	1154.377319335938	282.8556823730469	-1045.673217773438	924.28955078125	359.295166015625	-1114.088623046875	909.0914306640625	419.2705383300781	-1168.046997070312	1105.959228515625	395.6218872070312	-1027.301635742188	740.2376708984375	344.3663635253906	-1011.252563476562	816.1981811523438	376.0302124023438	-1070.1103515625	810.0868530273438	422.4866333007812	-1173.633178710938	1718.0341796875	43.65475082397461	-999.304443359375	1749.678466796875	171.6084289550781	-996.3643798828125	1747.210693359375	72.95967864990234	-1171.330932617188	1720.523803710938	188.153076171875	-1106.095947265625	961.572021484375	-54.32238388061523	-1090.320678710938	960.6944580078125	316.2673645019531	-987.4852905273438	997.2113647460938	244.7240600585938	-993.3200073242188	1013.1025390625	9.987983703613281	-1073.998413085938	517.6394653320312	5.95368480682373	-1088.9052734375	653.3665771484375	-34.06289672851562	-1178.3896484375	42.11073303222656	7.17249870300293	-1158.0048828125	288.3204345703125	-14.80598068237305	-965.6381225585938	41.11819076538086	91.93160247802734	-1027.125122070312	50.92353439331055	102.6679382324219	-1053.7587890625	40.89865493774414	-1.724643707275391	-1252.149291992188	47.68935775756836	52.22775268554688	-1096.815673828125	524.2562255859375	268.5009765625	-1070.291870117188	792.7184448242188	313.6412658691406	-1222.426147460938	48.48941802978516	242.1946411132812	-1127.516723632812	404.1327819824219	266.6932678222656	-988.825927734375	45.20678329467773	212.215576171875	-1050.917846679688	50.59332275390625	180.9378967285156	-1074.422119140625	44.94746780395508	272.5834655761719	-1275.915649414062	49.33190155029297	193.7420043945312	
70	0.6900000000000001	-1202.780883789062	1074.20361328125	218.0818786621094	-1205.965454101562	1063.01416015625	53.924560546875	-1211.733520507812	1118.594848632812	125.6595687866211	-1002.415832519531	1328.031127929688	133.0875091552734	-1247.739624023438	1261.931030273438	117.5604858398438	-1214.076171875	1532.401733398438	106.1096038818359	-1049.691650390625	1451.501708984375	124.3122253417969	-1261.827392578125	1392.170532226562	183.6495971679688	-1221.671997070312	1488.242797851562	7.216292858123779	-1115.041381835938	1503.290283203125	-60.15462875366211	-1129.207153320312	1372.527587890625	-135.3538818359375	-1106.564697265625	1153.45556640625	-150.8157348632812	-1166.412109375	1140.003784179688	-64.24305725097656	-1010.548828125	906.5374755859375	-82.50694274902344	-1083.404052734375	888.0411987304688	-129.3133392333984	-1087.240844726562	1038.468994140625	-152.4443969726562	-975.8565673828125	727.0516357421875	-55.58643341064453	-1045.336181640625	799.5469970703125	-124.1450881958008	-983.8133544921875	814.0093994140625	-91.26103973388672	-1151.108154296875	1522.845703125	287.4935607910156	-1165.605346679688	1451.720581054688	357.89599609375	-1183.68701171875	1181.048706054688	378.9155883789062	-1174.10302734375	1154.481079101562	282.563232421875	-1046.964721679688	924.181884765625	359.2764892578125	-1115.586791992188	909.0883178710938	419.0755004882812	-1169.252075195312	1106.0087890625	395.3258361816406	-1028.764526367188	740.1727905273438	344.4386901855469	-1012.76953125	816.059814453125	376.1007385253906	-1071.699096679688	810.0206909179688	422.3594665527344	-1173.501220703125	1718.065307617188	43.70098495483398	-999.2857055664062	1749.717407226562	171.8363342285156	-996.2134399414062	1747.276489257812	73.18445587158203	-1171.310546875	1720.366577148438	188.233642578125	-1105.841552734375	961.5664672851562	-54.30828475952148	-1090.876220703125	960.7830200195312	316.2517395019531	-987.8697509765625	997.271484375	244.9856414794922	-993.3069458007812	1013.044250488281	10.19868755340576	-1073.91015625	517.6233520507812	6.02698278427124	-1088.746704101562	653.3492431640625	-33.99369049072266	-1178.391723632812	42.10862350463867	7.164402961730957	-1157.928466796875	288.3019714355469	-14.80216026306152	-965.6437377929688	41.11855697631836	91.93775939941406	-1027.131225585938	50.91954040527344	102.6802215576172	-1053.773315429688	40.91338729858398	-1.722986578941345	-1252.149047851562	47.68277359008789	52.21442031860352	-1096.960571289062	524.2876586914062	268.5882263183594	-1070.703979492188	792.7468872070312	313.7763366699219	-1222.42431640625	48.48390960693359	242.1998748779297	-1127.64453125	404.1702575683594	266.7065124511719	-988.8209838867188	45.21005249023438	212.2183532714844	-1050.923217773438	50.59726715087891	180.9417877197266	-1074.421142578125	44.95162200927734	272.5853881835938	-1275.929565429688	49.32648849487305	193.7242736816406	
71	0.7000000000000001	-1203.142456054688	1074.2529296875	217.8354797363281	-1205.926391601562	1063.03759765625	53.71879959106445	-1211.848388671875	1118.688354492188	125.4106674194336	-1002.395385742188	1328.013916015625	133.3022003173828	-1247.701782226562	1262.0458984375	117.1412811279297	-1213.877319335938	1532.422729492188	105.816162109375	-1049.639038085938	1451.480834960938	124.4262390136719	-1262.029296875	1392.283203125	183.1510620117188	-1221.275756835938	1488.352416992188	6.844668388366699	-1114.427856445312	1503.342041015625	-60.20974731445312	-1128.469848632812	1372.591674804688	-135.4846649169922	-1105.900024414062	1153.506958007812	-150.9202117919922	-1166.055541992188	1140.065795898438	-64.55229187011719	-1010.416748046875	906.4876708984375	-82.45883941650391	-1083.126708984375	888.0565185546875	-129.4799041748047	-1086.709228515625	1038.527221679688	-152.5390777587891	-976.7916870117188	726.4864501953125	-55.26933670043945	-1045.082641601562	799.5128173828125	-124.2068099975586	-983.7308349609375	813.896484375	-91.13213348388672	-1151.428588867188	1522.890014648438	287.3503723144531	-1166.242919921875	1451.7841796875	357.6687622070312	-1184.729736328125	1181.1337890625	378.5892333984375	-1174.869873046875	1154.580932617188	282.2869262695312	-1048.211669921875	924.0995483398438	359.2578125	-1117.017578125	909.0880126953125	418.8970336914062	-1170.419067382812	1106.0615234375	395.0371398925781	-1030.119873046875	740.1193237304688	344.5128479003906	-1014.232666015625	815.9299926757812	376.1590576171875	-1073.232421875	809.9528198242188	422.2212219238281	-1173.379760742188	1718.102783203125	43.78046798706055	-999.2393188476562	1749.752319335938	172.0356140136719	-996.080322265625	1747.3388671875	73.39469146728516	-1171.2421875	1720.199951171875	188.3603210449219	-1105.607421875	961.5628662109375	-54.29595947265625	-1091.431518554688	960.872314453125	316.2592163085938	-988.2435913085938	997.3280639648438	245.2273406982422	-993.2755737304688	1012.993408203125	10.40833950042725	-1073.834838867188	517.6113891601562	6.09738302230835	-1088.607421875	653.3341674804688	-33.92472076416016	-1178.394409179688	42.10824203491211	7.155913352966309	-1157.859741210938	288.2867736816406	-14.79673671722412	-965.64990234375	41.11872100830078	91.94410705566406	-1027.13525390625	50.9152717590332	102.6916961669922	-1053.792846679688	40.93281936645508	-1.724687457084656	-1252.15087890625	47.67758941650391	52.20265960693359	-1097.099365234375	524.3268432617188	268.6793823242188	-1071.115112304688	792.769287109375	313.9053344726562	-1222.423706054688	48.47989654541016	242.2042083740234	-1127.768798828125	404.2067565917969	266.7193298339844	-988.8175048828125	45.21310043334961	212.2202606201172	-1050.9287109375	50.60140991210938	180.9453735351562	-1074.421142578125	44.95431900024414	272.5871887207031	-1275.94140625	49.32087326049805	193.7085571289062	
